# xmcd
#
# Track frame offsets:
#	150
#	17717
#	37782
#	53101
#	70927
#	90742
#	108352
#	128008
#	146619
#	162962
#	180381
#	201718
#	217131
#
# Disc length: 3102 seconds
#
# Revision: 1
# Processed by: cddbd v1.5.2PL0 Copyright (c) Steve Scherf et al.
# Submitted via: audiograbber 1.83.01
#
DISCID=b80c1c0d
DTITLE=папаиыаммоу циаммгс [2003] - лгм то суфгтас
DYEAR=2003
DGENRE=
TTITLE0=лес ста ацяиа ваяалата
TTITLE1=йяата ле
TTITLE2=гкие поте лгм намабцеис
TTITLE3=циа ема с' ацапы
TTITLE4=ле поиом ликас
TTITLE5=дем се суцвыяы
TTITLE6=лг ле яытас
TTITLE7=апоье
TTITLE8=паеи йаи текеиысе
TTITLE9=акиломо лоу
TTITLE10=лгм то суфгтас
TTITLE11=тупос йаи упоцяаллос
TTITLE12=еимаи то стола лоу фесто
EXTD=
EXTT0=
EXTT1=
EXTT2=
EXTT3=
EXTT4=
EXTT5=
EXTT6=
EXTT7=
EXTT8=
EXTT9=
EXTT10=
EXTT11=
EXTT12=
PLAYORDER=
